<?xml version="1.0" encoding="UTF-8"?>
<svg xmlns="http://www.w3.org/2000/svg" version="1.1" viewBox="0 0 3000 769">
  <defs>
    <style>
      .cls-1 {
        fill: #26ddcc;
      }

      .cls-2 {
        fill: #f5f5f5;
      }
    </style>
  </defs>
  <!-- Generator: Adobe Illustrator 28.6.0, SVG Export Plug-In . SVG Version: 1.2.0 Build 709)  -->
  <g>
    <g id="_Слой_1" data-name="Слой_1">
      <g>
        <g>
          <rect class="cls-2" x="184.2" width="769" height="769"/>
          <polygon class="cls-1" points="0 354.1 595.2 233.3 1097.2 354.1 639.8 354.1 417.1 535.7 478.3 354.1 0 354.1"/>
        </g>
        <g>
          <g>
            <path class="cls-2" d="M1196.1,52.6h-118.9V0h298.5v52.6h-118.9v301.5h-60.7V52.6Z"/>
            <path class="cls-2" d="M1496.7,344.3c-19.6-6.5-36.8-16.8-51.6-30.7-14.8-13.9-26.6-31.9-35.4-54-8.8-22.1-13.2-48.8-13.2-80.2v-9.8c0-30.1,4.4-55.8,13.2-77.3,8.8-21.4,20.6-39,35.4-52.7,14.8-13.7,32-23.8,51.6-30.2,19.6-6.4,40.1-9.6,61.7-9.6s42.2,3.2,61.7,9.6c19.6,6.4,36.8,16.4,51.6,30.2,14.8,13.7,26.6,31.3,35.4,52.7,8.8,21.4,13.2,47.2,13.2,77.3v9.8c0,31.4-4.4,58.1-13.2,80.2-8.8,22.1-20.6,40.1-35.4,54-14.8,13.9-32,24.1-51.6,30.7-19.6,6.5-40.1,9.8-61.7,9.8s-42.2-3.3-61.7-9.8ZM1594.8,295.8c11.8-4.2,22.3-11.2,31.4-20.8,9.1-9.6,16.4-22.3,22-38,5.6-15.7,8.3-34.8,8.3-57.4v-9.8c0-21.6-2.8-39.8-8.3-54.7-5.6-14.9-12.9-27-22-36.3-9.1-9.3-19.6-16.1-31.4-20.4-11.8-4.2-24-6.4-36.4-6.4s-25.1,2.1-36.9,6.4c-11.8,4.3-22.3,11-31.4,20.4-9.1,9.3-16.4,21.4-21.8,36.3-5.4,14.9-8.1,33.1-8.1,54.7v9.8c0,22.6,2.7,41.7,8.1,57.4,5.4,15.7,12.6,28.4,21.8,38,9.1,9.7,19.6,16.6,31.4,20.8,11.8,4.3,24.1,6.4,36.9,6.4s24.6-2.1,36.4-6.4Z"/>
            <path class="cls-2" d="M1844.9,217.5L1708.3,0h71.8l96.1,156.8L1965.3,0h66.8l-126.5,217.5v136.6h-60.7v-136.6Z"/>
            <path class="cls-2" d="M2115,346.8c-16.9-4.9-30.9-11.8-42.2-20.6-11.3-8.8-20-19.3-26.1-31.4-6.1-12.1-9.8-25.2-11.1-39.2h60.7c1.3,6.9,3.6,13.1,6.8,18.6,3.2,5.6,7.8,10.5,13.9,14.7,6.1,4.3,13.8,7.5,23.3,9.8,9.4,2.3,20.9,3.4,34.4,3.4s26.2-1.2,36.2-3.7c9.9-2.5,18-5.7,24.3-9.8,6.2-4.1,10.8-9,13.7-14.7,2.9-5.7,4.3-11.8,4.3-18.4s-1.9-14.7-5.6-20.6c-3.7-5.9-9.5-11-17.5-15.5-7.9-4.4-17.8-8.4-29.6-12-11.8-3.6-25.8-7-42-10.3-18.2-3.9-34.4-8.6-48.6-14-14.2-5.4-26-12.1-35.4-20.1-9.4-8-16.6-17.7-21.5-28.9-4.9-11.3-7.3-24.8-7.3-40.5s2.8-24.8,8.3-36.3c5.6-11.4,13.7-21.4,24.5-29.9,10.8-8.5,24.2-15.2,40.2-20.1,16-4.9,34.7-7.4,55.9-7.4s38.6,2.3,54.1,6.9c15.5,4.6,28.6,11,39.2,19.4,10.6,8.3,18.9,18.2,24.8,29.7,5.9,11.5,9.5,24,10.9,37.8h-60.7c-1.4-6.2-3.7-11.9-7.1-16.9-3.4-5.1-7.8-9.5-13.4-13.2-5.6-3.8-12.3-6.6-20.2-8.6-7.9-2-17.1-2.9-27.6-2.9s-22.5,1.1-31.1,3.2c-8.6,2.1-15.7,5.1-21.2,8.8-5.6,3.8-9.6,8.2-12.1,13.2-2.5,5.1-3.8,10.5-3.8,16.4s1.7,14.6,5.1,20.4c3.4,5.7,8.4,10.7,15.2,15,6.7,4.3,15.3,7.9,25.5,11,10.3,3.1,22.5,6.1,36.7,9.1,20.9,4.3,39.1,9.2,54.6,14.7,15.5,5.6,28.5,12.5,39,20.8,10.4,8.3,18.3,18.2,23.5,29.7,5.2,11.5,7.8,25.2,7.8,41.2s-2.9,27.1-8.6,39.2c-5.7,12.1-14.4,22.6-26.1,31.4-11.6,8.8-26.1,15.7-43.5,20.6-17.4,4.9-37.7,7.4-61,7.4s-42.8-2.5-59.7-7.4Z"/>
          </g>
          <g>
            <path class="cls-2" d="M1308.9,689.1h-143.7l-29.8,79.9h-60.7l134.1-354.1h60.7l134.1,354.1h-64.8l-29.9-79.9ZM1184.9,636.4h104.2l-51.6-145.7-52.6,145.7Z"/>
            <path class="cls-2" d="M1491.8,758c-19.7-7.4-36.5-18.4-50.3-33.1-13.8-14.7-24.5-32.9-31.9-54.7-7.4-21.7-11.1-47-11.1-75.8v-9.8c0-27.1,3.8-51.2,11.4-72.1,7.6-20.9,18.4-38.7,32.4-53.2,14-14.5,30.8-25.6,50.3-33.1,19.6-7.5,41.3-11.3,65.3-11.3s35.2,2.4,50.8,7.1c15.7,4.7,29.6,11.6,41.7,20.6,12.1,9,22.3,20.3,30.6,33.8,8.3,13.6,14.4,29.2,18.5,46.8h-65.8c-3.7-10.8-8.3-19.8-13.9-27-5.6-7.2-11.6-13-18.2-17.4-6.6-4.4-13.6-7.5-21-9.3-7.4-1.8-15-2.7-22.8-2.7-14.2,0-27.2,2.4-39,7.1-11.8,4.7-21.9,11.9-30.4,21.6-8.4,9.6-14.9,21.8-19.5,36.5-4.6,14.7-6.8,32.2-6.8,52.5v9.8c0,20.9,2.4,39.1,7.1,54.4,4.7,15.4,11.3,28.1,19.7,38.3,8.4,10.1,18.5,17.7,30.4,22.6,11.8,4.9,24.6,7.4,38.4,7.4s25-1.6,35.7-4.9c10.6-3.3,19.7-8.3,27.3-15.2,7.6-6.9,13.7-15.5,18.5-26,4.7-10.5,7.8-22.9,9.1-37.3h-80.4v-49h139.1v19.6c0,27.5-3.5,51.5-10.4,72.1-6.9,20.6-16.8,37.8-29.6,51.5-12.8,13.7-28.4,24-46.8,30.9-18.4,6.9-39.2,10.3-62.5,10.3s-46.3-3.7-66-11Z"/>
            <path class="cls-2" d="M1752.6,414.9h237.8v52.6h-177.1v93.1h161.9v52.6h-161.9v103.2h177.1v52.6h-237.8v-354.1Z"/>
            <path class="cls-2" d="M2035.9,414.9h58.7l174,253v-253h60.7v354.1h-58.7l-174-253v253h-60.7v-354.1Z"/>
            <path class="cls-2" d="M2468.4,759.2c-18.9-6.5-35.2-16.8-49.1-30.9-13.8-14.1-24.7-32.1-32.6-54.2-7.9-22.1-11.9-48.6-11.9-79.7v-9.8c0-29.8,4-55.3,12.1-76.8,8.1-21.4,19.1-39,33.1-52.7,14-13.7,30.4-23.9,49.1-30.4,18.7-6.5,38.7-9.8,60-9.8s37.8,2.4,54.6,7.1c16.9,4.7,31.6,11.9,44.3,21.3,12.6,9.5,22.9,21.3,30.9,35.3,7.9,14.1,12.7,30.6,14.4,49.5h-63.7c-2-10.8-5.5-20-10.4-27.7-4.9-7.7-10.8-14-17.7-18.9-6.9-4.9-14.8-8.6-23.8-11-8.9-2.5-18.5-3.7-28.6-3.7s-22.1,2-32.9,5.9c-10.8,3.9-20.5,10.5-29.1,19.6-8.6,9.2-15.5,21.3-20.7,36.3-5.2,15-7.8,33.7-7.8,55.9v9.8c0,23.5,2.8,43.2,8.3,58.9,5.6,15.7,12.7,28.3,21.5,37.8,8.8,9.5,18.5,16.2,29.1,20.1,10.6,3.9,21.2,5.9,31.6,5.9s22.9-1.4,32.4-4.2c9.4-2.8,17.5-6.9,24-12.3,6.6-5.4,11.9-11.8,15.9-19.4,4-7.5,6.7-16,8.1-25.5h63.7c-2,20.3-7.1,37.6-15.2,52-8.1,14.4-18.5,26.1-31.1,35.1-12.6,9-27.3,15.6-44,19.9-16.7,4.2-34.7,6.4-53.9,6.4s-41.8-3.3-60.7-9.8Z"/>
            <path class="cls-2" d="M2812.8,632.4l-136.6-217.5h71.8l96.1,156.8,89-156.8h66.8l-126.5,217.5v136.6h-60.7v-136.6Z"/>
          </g>
        </g>
      </g>
    </g>
  </g>
</svg>
